<?xml version="1.0" standalone="no"?>
<!DOCTYPE svg PUBLIC "-//W3C//DTD SVG 20010904//EN"
 "http://www.w3.org/TR/2001/REC-SVG-20010904/DTD/svg10.dtd">
<svg version="1.0" xmlns="http://www.w3.org/2000/svg"
 width="499.000000pt" height="499.000000pt" viewBox="0 0 499.000000 499.000000"
 preserveAspectRatio="xMidYMid meet">

<g transform="translate(0.000000,499.000000) scale(0.100000,-0.100000)"
fill="#000000" stroke="none">
<path d="M2315 3704 c-215 -48 -412 -182 -534 -364 -294 -439 -139 -1024 336
-1263 258 -131 608 -110 851 50 372 246 501 713 307 1110 -109 222 -283 370
-525 448 -73 24 -106 28 -225 31 -101 3 -160 -1 -210 -12z m-223 -436 c-46
-50 -42 -63 73 -275 60 -109 110 -200 111 -202 2 -2 4 95 4 217 l0 220 -26 31
-26 31 107 0 107 0 -26 -31 c-14 -17 -26 -38 -26 -47 0 -9 8 -2 18 17 9 19 24
37 32 39 11 4 10 -1 -4 -17 -11 -11 -17 -23 -14 -26 3 -3 11 1 18 10 22 27 32
16 11 -11 -20 -26 -21 -39 -22 -353 0 -179 -4 -335 -9 -346 -7 -16 -9 -17 -9
-3 -1 9 -6 20 -12 24 -16 10 -2 -46 17 -67 19 -21 18 -30 -3 -23 -15 5 -15 4
-3 -4 8 -6 18 -8 22 -6 5 3 15 -2 24 -10 14 -15 7 -16 -80 -16 -61 0 -96 4
-96 11 0 5 -4 7 -10 4 -5 -3 -10 -2 -10 4 0 5 6 11 13 14 6 2 2 2 -10 0 -28
-4 -29 2 -3 34 11 14 20 37 20 50 0 31 -192 392 -198 373 -3 -8 0 -16 7 -18
13 -4 16 -372 2 -372 -18 0 -22 40 -20 233 1 109 -1 201 -5 204 -8 8 -8 -385
0 -425 3 -17 14 -39 25 -50 10 -11 15 -23 12 -26 -4 -3 1 -6 11 -6 9 0 15 -4
12 -9 -4 -5 0 -12 6 -14 7 -3 -30 -6 -83 -6 -69 -1 -100 3 -108 12 -6 8 -7 18
-3 22 4 5 -1 5 -10 2 -23 -8 -23 -5 7 39 l26 38 -3 345 c-3 344 -3 346 -26
379 l-23 32 102 0 102 0 -21 -22z m609 -4 c-12 -15 -21 -31 -21 -37 0 -5 9 2
21 17 11 14 25 26 30 26 6 0 1 -12 -10 -26 -12 -15 -21 -32 -21 -38 1 -6 8 1
16 17 8 15 22 27 31 27 14 0 14 -3 -3 -21 -10 -11 -24 -33 -31 -47 -6 -15 -12
-21 -12 -14 -1 16 -31 48 -31 33 0 -5 47 -96 105 -202 58 -106 105 -196 105
-201 0 -4 5 -8 11 -8 7 0 9 68 7 219 -3 210 -4 221 -26 250 l-23 31 102 0 101
0 -26 -31 c-15 -18 -25 -42 -25 -57 2 -26 2 -26 6 -3 7 34 33 71 50 71 11 0 7
-9 -11 -31 -14 -17 -26 -36 -26 -42 0 -7 9 3 20 21 11 17 24 32 30 32 5 0 1
-15 -10 -32 -19 -31 -20 -52 -20 -360 0 -207 -4 -329 -10 -333 -7 -4 -11 106
-12 322 l-2 328 -6 -320 c-3 -176 -2 -329 1 -340 6 -18 16 -31 59 -82 9 -10
-9 -13 -82 -13 -81 0 -95 3 -108 19 -7 11 -17 18 -22 15 -4 -3 -8 -1 -8 5 0 5
5 13 11 17 6 3 17 22 25 40 14 33 13 35 -92 231 -58 109 -110 202 -114 207 -5
5 -9 -84 -10 -197 -1 -227 3 -247 59 -304 l31 -33 -96 0 c-68 0 -99 4 -109 14
-8 7 -11 17 -7 20 3 4 -1 4 -11 0 -10 -3 -17 -1 -17 5 0 6 4 11 9 11 5 0 16
15 25 34 14 29 16 82 16 374 l0 339 -25 37 -24 36 100 0 100 0 -20 -26z m-591
-16 c-11 -12 -20 -26 -20 -32 0 -6 7 0 16 12 26 37 32 24 10 -22 -12 -24 -25
-41 -29 -39 -5 3 -6 12 -3 20 3 8 1 11 -4 8 -15 -9 -12 12 5 45 9 17 22 30 31
30 12 0 10 -5 -6 -22z m600 -562 c-1 -162 -2 -178 -15 -156 -11 19 -14 68 -15
210 0 170 1 183 15 156 12 -22 15 -68 15 -210z"/>
<path d="M1977 3233 c11 -37 10 -690 0 -727 -7 -26 -7 -28 8 -16 14 12 15 54
13 386 l-3 373 30 4 c23 3 20 4 -13 5 -42 2 -42 2 -35 -25z"/>
<path d="M2308 2973 c2 -163 7 -292 13 -297 12 -13 12 534 -1 554 -7 12 -3 16
23 21 l32 6 -35 2 -35 1 3 -287z"/>
<path d="M2053 3047 c4 -10 64 -123 133 -250 120 -221 125 -234 120 -277 -5
-41 -4 -43 9 -26 8 11 15 29 15 41 0 12 -60 133 -134 269 -124 229 -159 289
-143 243z"/>
<path d="M2081 2814 c0 -11 3 -14 6 -6 3 7 2 16 -1 19 -3 4 -6 -2 -5 -13z"/>
<path d="M2082 2700 c0 -14 2 -19 5 -12 2 6 2 18 0 25 -3 6 -5 1 -5 -13z"/>
<path d="M2083 2625 c0 -27 2 -38 4 -22 2 15 2 37 0 50 -2 12 -4 0 -4 -28z"/>
<path d="M1988 2453 c6 -2 18 -2 25 0 6 3 1 5 -13 5 -14 0 -19 -2 -12 -5z"/>
<path d="M2338 2453 c7 -3 16 -2 19 1 4 3 -2 6 -13 5 -11 0 -14 -3 -6 -6z"/>
<path d="M2590 3234 c14 -36 13 -699 -1 -726 -13 -24 -4 -37 14 -19 15 15 23
650 9 717 -9 43 -9 43 22 47 25 3 23 4 -11 5 -42 2 -42 1 -33 -24z"/>
<path d="M2914 3243 c3 -10 6 -138 7 -285 2 -147 6 -273 11 -280 4 -7 7 118 6
279 l-3 292 30 4 c23 3 19 4 -13 5 -37 2 -43 -1 -38 -15z"/>
<path d="M2660 3057 c0 -3 59 -115 131 -247 124 -228 131 -244 126 -286 -4
-37 -2 -43 9 -33 31 25 14 71 -117 312 -122 225 -149 271 -149 254z"/>
<path d="M2568 2453 c6 -2 18 -2 25 0 6 3 1 5 -13 5 -14 0 -19 -2 -12 -5z"/>
<path d="M2658 2453 c7 -3 16 -2 19 1 4 3 -2 6 -13 5 -11 0 -14 -3 -6 -6z"/>
<path d="M2958 2453 c7 -3 16 -2 19 1 4 3 -2 6 -13 5 -11 0 -14 -3 -6 -6z"/>
<path d="M959 1754 c-98 -73 -162 -82 -191 -26 -18 37 -33 28 -19 -12 22 -56
79 -60 168 -11 35 19 63 33 63 31 0 -27 -54 -141 -100 -211 -60 -92 -74 -137
-44 -149 28 -11 60 38 94 140 47 141 111 224 175 224 32 0 47 -34 36 -81 -4
-19 -30 -101 -57 -182 -46 -139 -48 -149 -34 -175 9 -16 26 -28 40 -30 l25 -3
-27 22 c-16 11 -28 28 -28 38 0 9 23 84 50 166 55 163 64 230 34 252 -32 24
-71 16 -116 -24 -45 -41 -43 -43 -22 35 8 29 -4 28 -47 -4z m-70 -297 c-21
-56 -49 -83 -49 -49 0 20 58 117 66 110 2 -3 -5 -30 -17 -61z"/>
<path d="M2790 1744 c-85 -64 -165 -71 -177 -14 -7 36 -23 40 -23 6 0 -15 11
-33 28 -46 36 -29 87 -22 153 19 27 16 49 27 49 22 0 -30 -47 -132 -90 -196
-62 -92 -77 -129 -60 -150 30 -36 60 0 100 121 35 105 70 165 120 208 50 42
100 31 100 -22 0 -13 -22 -92 -50 -176 -63 -191 -64 -246 -8 -246 24 0 23 16
0 23 -34 8 -31 44 19 192 60 180 67 216 45 250 -25 38 -72 34 -124 -11 -46
-39 -48 -39 -28 11 13 30 12 46 -3 44 -3 0 -26 -16 -51 -35z m-50 -271 c-16
-51 -39 -85 -51 -77 -13 8 -2 39 29 87 30 45 38 42 22 -10z"/>
<path d="M1642 1689 c-10 -25 -54 -147 -92 -256 -31 -88 -5 -68 30 22 34 92
71 145 100 145 28 0 31 -25 10 -93 -11 -34 -20 -74 -20 -89 0 -37 26 -50 62
-32 25 13 30 13 44 -1 20 -20 26 -19 59 6 34 27 103 32 111 7 8 -27 36 -30 66
-8 15 11 28 16 28 11 0 -6 9 -15 21 -21 16 -9 27 -7 55 9 19 11 34 16 34 11 0
-5 9 -14 20 -20 22 -12 74 9 83 32 3 9 11 5 24 -11 25 -30 77 -34 117 -8 26
18 72 94 62 105 -3 3 -7 3 -9 1 -2 -2 -15 -23 -29 -45 -46 -71 -128 -79 -128
-12 0 30 5 35 52 58 65 31 95 68 79 99 -18 33 -58 27 -97 -15 -19 -19 -34 -40
-34 -46 0 -18 -51 -113 -67 -125 -26 -20 -53 -16 -53 8 0 11 20 78 44 149 25
71 41 132 36 135 -4 3 -27 -48 -49 -113 -46 -130 -79 -186 -111 -195 -37 -10
-35 21 13 163 51 150 51 150 38 150 -5 0 -26 -48 -45 -107 -53 -157 -97 -226
-126 -197 -9 9 -3 36 19 103 17 51 31 97 31 104 0 23 -19 -10 -45 -78 -29 -77
-49 -105 -77 -105 -25 0 -23 10 22 100 43 86 45 90 31 90 -6 0 -24 -29 -42
-65 -21 -43 -37 -64 -46 -61 -12 5 -18 -11 -14 -42 3 -20 -29 -52 -51 -52 -24
0 -23 14 12 113 31 89 35 107 22 107 -4 0 -18 -30 -30 -67 -33 -94 -68 -153
-92 -153 -26 0 -26 29 1 109 17 51 19 67 10 88 -10 21 -17 25 -46 21 -39 -4
-39 -4 -24 40 14 40 5 67 -9 31z m763 -100 c9 -13 -21 -46 -57 -65 -40 -21
-51 -18 -37 9 29 55 77 84 94 56z"/>
<path d="M3275 1674 c-8 -20 -15 -40 -15 -45 0 -5 -11 -9 -25 -9 -14 0 -25 -4
-25 -10 0 -5 9 -10 19 -10 19 0 19 -1 0 -57 -29 -85 -61 -137 -87 -141 -30 -5
-29 18 8 125 34 98 33 93 21 93 -5 0 -25 -43 -46 -95 -36 -94 -71 -140 -100
-129 -26 10 -25 35 5 116 31 85 38 120 20 102 -19 -19 -71 -184 -65 -204 11
-33 41 -43 77 -25 28 14 33 14 49 -1 16 -15 21 -15 49 0 29 14 34 14 47 0 17
-17 47 -11 77 15 10 9 36 50 57 93 32 64 42 75 59 71 30 -8 32 -18 15 -75 -8
-28 -15 -62 -15 -74 0 -33 30 -46 65 -28 25 13 30 13 46 -2 16 -14 20 -14 48
1 29 14 33 14 47 0 17 -17 48 -12 75 11 13 11 17 11 32 -6 21 -25 28 -25 60 0
l26 21 21 -21 c25 -25 30 -25 71 3 38 25 102 26 97 2 -2 -8 2 -13 7 -13 6 1
22 35 37 76 32 86 70 142 99 142 30 0 33 -24 10 -92 -12 -34 -21 -74 -21 -90
0 -34 31 -54 60 -38 20 11 70 88 70 108 0 25 -16 10 -40 -36 -17 -31 -32 -48
-47 -50 -29 -4 -30 15 -3 93 35 101 24 128 -51 121 l-44 -4 -27 -72 c-29 -79
-52 -110 -80 -110 -22 0 -22 7 -3 54 32 76 18 136 -32 136 -34 0 -69 -39 -104
-117 -35 -78 -54 -103 -81 -103 -24 0 -23 11 12 115 32 96 34 105 22 105 -5 0
-21 -35 -35 -77 -31 -87 -69 -143 -97 -143 -29 0 -31 13 -14 71 31 105 44 129
70 129 13 0 24 5 24 10 0 6 -9 10 -21 10 -16 0 -20 4 -14 18 3 9 9 30 12 46 9
43 -14 24 -28 -24 -10 -32 -17 -40 -36 -40 -12 0 -23 -4 -23 -10 0 -5 9 -10
20 -10 19 0 19 -2 -5 -67 -34 -88 -62 -133 -86 -133 -27 0 -25 33 10 132 28
78 32 104 12 82 -4 -5 -20 -40 -35 -79 -35 -94 -61 -135 -86 -135 -26 0 -26
20 0 95 11 32 20 61 20 65 0 4 -15 11 -32 16 -27 8 -34 16 -38 44 -4 26 -10
35 -24 35 -31 0 -43 -30 -23 -53 17 -19 16 -23 -18 -94 -39 -83 -64 -112 -92
-106 -23 5 -21 32 13 126 22 62 29 72 50 72 13 0 24 5 24 10 0 6 -9 10 -21 10
-16 0 -20 4 -14 18 11 29 18 72 11 72 -3 0 -13 -16 -21 -36z m95 -50 c0 -8 -5
-12 -10 -9 -6 4 -8 11 -5 16 9 14 15 11 15 -7z m578 -58 c5 -44 -6 -76 -23
-70 -11 5 -15 -2 -15 -27 0 -39 -24 -69 -57 -69 -20 0 -23 5 -23 35 0 40 19
92 51 136 28 39 63 37 67 -5z"/>
<path d="M2020 1665 c0 -8 7 -15 15 -15 8 0 15 7 15 15 0 8 -7 15 -15 15 -8 0
-15 -7 -15 -15z"/>
<path d="M3572 1668 c5 -15 28 -18 29 -3 0 6 -7 12 -17 13 -10 3 -15 -1 -12
-10z"/>
<path d="M3780 1665 c0 -8 7 -15 15 -15 8 0 15 7 15 15 0 8 -7 15 -15 15 -8 0
-15 -7 -15 -15z"/>
<path d="M1472 1648 c-7 -7 -12 -25 -12 -41 0 -15 -5 -37 -11 -49 -9 -17 -8
-19 9 -14 15 5 23 -1 36 -28 28 -58 17 -97 -33 -114 -60 -21 -107 43 -65 89
22 25 38 24 57 -3 18 -28 33 -18 18 10 -26 49 -85 32 -120 -36 -27 -52 -55
-76 -69 -59 -8 9 -2 38 22 112 19 55 32 102 30 104 -2 2 -10 -2 -18 -8 -10 -8
-16 -9 -21 -1 -10 16 -50 12 -77 -10 -29 -22 -65 -100 -68 -145 -4 -53 0 -64
21 -76 18 -9 27 -7 50 10 33 25 39 26 39 7 0 -17 27 -29 43 -20 7 4 22 16 35
28 22 20 24 20 34 3 15 -28 56 -39 94 -27 64 22 81 78 44 150 -19 37 -19 42
-4 65 27 41 -1 86 -34 53z m19 -35 c-8 -15 -10 -15 -11 -2 0 17 10 32 18 25 2
-3 -1 -13 -7 -23z m-203 -43 c6 -56 -79 -193 -109 -174 -26 16 6 140 48 187
24 25 57 18 61 -13z"/>
</g>
</svg>
